HIERARCHY
ROOT ui
{
	 OFFSET 0 0 0
	 CHANNELS 3 XPosition YPosition Z Position
	 EndSite
	 {
	 OFFSET 0 -1 0
	 }
}
ROOT li
{
	 OFFSET 0 0 0
	 CHANNELS 3 XPosition YPosition Z Position
	 EndSite
	 {
	 OFFSET 0 -1 0
	 }
}
ROOT ul
{
	 OFFSET 0 0 0
	 CHANNELS 3 XPosition YPosition Z Position
	 EndSite
	 {
	 OFFSET 0 -1 0
	 }
}
ROOT ll
{
	 OFFSET 0 0 0
	 CHANNELS 3 XPosition YPosition Z Position
	 EndSite
	 {
	 OFFSET 0 -1 0
	 }
}
ROOT tt
{
	 OFFSET 0 0 0
	 CHANNELS 3 XPosition YPosition Z Position
	 EndSite
	 {
	 OFFSET 0 -1 0
	 }
}
ROOT tb
{
	 OFFSET 0 0 0
	 CHANNELS 3 XPosition YPosition Z Position
	 EndSite
	 {
	 OFFSET 0 -1 0
	 }
}
ROOT td
{
	 OFFSET 0 0 0
	 CHANNELS 3 XPosition YPosition Z Position
	 EndSite
	 {
	 OFFSET 0 -1 0
	 }
}
ROOT v
{
	 OFFSET 0 0 0
	 CHANNELS 3 XPosition YPosition Z Position
	 EndSite
	 {
	 OFFSET 0 -1 0
	 }
}
ROOT bn
{
	 OFFSET 0 0 0
	 CHANNELS 3 XPosition YPosition Z Position
	 EndSite
	 {
	 OFFSET 0 -1 0
	 }
}
MOTION
Frames: 10
Frame Time: 0.002
0.0021247200965881347	-7.012670040130616E-4	0		0.43329290771484374	-2.676116455078125	0		-1.183021728515625	-0.04438100814819336	0		-0.901928466796875	-2.9167568359375	0		1.1571346435546874	-0.9376094970703125	0		2.78345458984375	-0.40288299560546875	0		4.5081279296875	-0.14423370361328125	0		5.66782958984375	0.21903573608398438	0		-0.2989752197265625	5.8917216796875	0		
0.00214224910736084	-5.917609930038453E-4	0		0.46552484130859373	-2.66168212890625	0		-1.183005615234375	-0.04423284912109375	0		-0.9358960571289062	-2.910919677734375	0		1.02172607421875	-0.9067472534179688	0		2.810124267578125	-0.41941595458984376	0		4.518138671875	-0.14447677612304688	0		5.68005712890625	0.22871160888671874	0		-0.2845628356933594	5.90155078125	0		
-0.052710765838623046	0.006652850151062012	0		0.43847879028320313	-2.660027587890625	0		-1.190137939453125	-0.05093647766113281	0		-0.865135498046875	-2.919237548828125	0		1.144394775390625	-0.9231961669921875	0		2.810472900390625	-0.40239505004882814	0		4.51127099609375	-0.13836335754394533	0		5.680076171875	0.22864541625976562	0		-0.2985674743652344	5.8919638671875	0		
-9.172800183296204E-4	-0.0032980010509490966	0		0.46431991577148435	-2.66345849609375	0		-1.197044921875	-0.04563869857788086	0		-0.902185791015625	-2.916330322265625	0		1.1375023193359375	-0.9159702758789062	0		2.80734814453125	-0.40730010986328125	0		4.51329736328125	-0.13642510986328124	0		5.68427880859375	0.23850492858886718	0		-0.31160061645507814	5.882361328125	0		
-0.050928359985351564	-0.0011422120332717895	0		0.43826611328125	-2.659812744140625	0		-1.190193359375	-0.050623382568359375	0		-0.8653638305664062	-2.91894384765625	0		1.1532022705078124	-0.9272088012695312	0		2.773239013671875	-0.40955722045898435	0		4.5080869140625	-0.1443306884765625	0		5.68265673828125	0.2584967041015625	0		-0.31146844482421876	5.88249365234375	0		
0.002023174047470093	-1.0816700011491776E-4	0		0.4530461120605469	-2.663005615234375	0		-1.1790687255859376	-0.040689735412597655	0		-0.931263671875	-2.905427490234375	0		1.0352052001953125	-0.9206731567382812	0		2.80391455078125	-0.4211463928222656	0		4.5169609375	-0.14651654052734375	0		5.693169921875	0.23823963928222655	0		-0.2952368469238281	5.88929931640625	0		
0.009866903305053711	-0.0021376879215240477	0		0.4700214538574219	-2.655236328125	0		-1.1042198486328125	-0.04307437515258789	0		-0.8595760498046875	-2.911756103515625	0		1.1522279052734374	-0.9139909057617187	0		2.816346435546875	-0.39434237670898437	0		4.51513427734375	-0.13246713256835937	0		5.709412109375	0.2548831329345703	0		-0.28100387573242186	5.8981513671875	0		
-0.003129081964492798	0.005273515224456787	0		0.4687659301757813	-2.657083984375	0		-1.190532958984375	-0.050116477966308595	0		-0.9203900146484375	-2.8913291015625	0		1.1421448974609374	-0.9096715087890626	0		2.810027587890625	-0.4021474914550781	0		4.531837890625	-0.13979440307617189	0		5.7034833984375	0.2649974670410156	0		-0.31035842895507815	5.88090771484375	0		
-0.007361001014709473	0.002509152889251709	0		0.46648681640625	-2.658902099609375	0		-1.1167415771484375	-0.052470539093017576	0		-0.8867451171875	-2.896858642578125	0		1.139889404296875	-0.9125064697265625	0		2.794849853515625	-0.4017554626464844	0		4.52272802734375	-0.1365712585449219	0		5.7039873046875	0.2489873962402344	0		-0.2961545715332031	5.8917744140625	0		
0.0014022259712219238	4.8334500193595887E-4	0		0.4501079711914063	-2.6644189453125	0		-1.1908994140625	-0.04974497604370117	0		-0.8972765502929687	-2.9094658203125	0		1.1417359619140626	-0.9094155883789062	0		2.8096435546875	-0.40197418212890623	0		4.5173662109375	-0.14441432189941406	0		5.70796533203125	0.25692523193359373	0		-0.29620541381835935	5.89194189453125	0		
